<svg width="46" height="53" viewBox="0 0 46 53" fill="none" xmlns="http://www.w3.org/2000/svg">
<path d="M24.445 39.5971C23.0274 38.0614 19.4834 34.99 16.0576 34.99C13.9313 34.99 11.2142 35.9351 10.3873 38.0614C9.56044 40.1878 10.3873 42.6686 16.0576 42.6686C22.3186 42.6686 21.3735 36.6439 21.3735 34.99C21.3735 33.3362 19.0109 28.4928 13.1043 28.4928C7.19778 28.4928 2 31.9186 2 39.5971C2 47.2757 10.7417 50.7015 16.0576 50.7015C21.3735 50.7015 33.3048 47.2757 40.7471 33.4543C46.7009 22.3972 40.5502 25.5395 36.7306 28.4928L32.0054 31.5642C34.053 28.6503 38.4081 21.523 39.4476 16.3253C39.7233 13.8839 39.3059 10.1352 35.4312 14.6714C30.5878 20.3417 32.2416 19.1604 28.3433 23.295C25.9831 25.7983 22.8147 27.0044 25.2719 21.9956C27.729 16.9868 28.7371 15.0258 28.9339 14.6714C30.7059 11.7181 33.5174 5.59894 30.5878 4.7484C27.6581 3.89785 22.358 12.8207 20.0741 17.3885C18.4202 20.3417 15.4433 24.4763 16.7664 17.3885C18.0895 10.3006 18.5778 6.79601 18.6565 5.92971C18.3415 3.44896 16.7901 0.18853 13.1043 6.9929C9.41864 13.7973 8.3397 19.8298 8.26095 21.9956" stroke="#57CC99" stroke-width="3.87074" stroke-linecap="round" stroke-linejoin="round"/>
</svg>
