<svg width="540" height="495" viewBox="0 0 540 495" fill="none" xmlns="http://www.w3.org/2000/svg">
<path d="M538 388C537.833 392.167 532.6 400.7 513 401.5C488.5 402.5 449.5 380 422.5 381.5C395.5 383 361 397 365.5 407.5C370 418 380.294 403.663 381 397.5C381.706 391.337 374 345.5 365.5 325C358.139 307.248 337.094 256.69 327.038 240.856C326.006 239.231 324.868 239.993 325.618 241.766C342.754 282.26 368.556 355.354 365.5 384C362.354 413.495 351.539 410.608 346.266 405.276C346.087 405.095 345.955 404.888 345.865 404.65C342.524 395.89 337.37 373.494 342.5 351C349 322.5 357.5 303.5 361.5 302.5C365.5 301.5 425 296 428 292.5C431 289 388 297.5 403.5 302.5C419 307.5 452 305.5 452.5 299C453 292.5 453 283 443 274C433 265 425 269.5 428 277.5C431 285.5 438.75 299 445 297.5C449.247 296.481 452.351 291.662 453.854 288.345C454.262 287.443 455.218 286.894 456.201 287.016C462.153 287.752 471.431 286.987 471.25 279C471.188 276.282 470.33 274.257 469.048 272.766C467.578 271.058 466.435 263.992 467.809 262.206C469.98 259.383 470.41 256.128 466.5 253C456.5 245 421.75 231 416 242C410.25 253 446 267.75 450.25 269C454.5 270.25 479.5 256.25 473 245C470.23 240.206 467.905 237.374 466.16 235.787C464.984 234.718 463.976 232.124 464.498 230.622C466.483 224.907 466.898 216.493 458.25 212.25C445 205.75 404.5 209.25 407.75 220.75C411 232.25 435.75 236.25 443 236.25C450.25 236.25 466 239.5 469.5 223.75C472.873 208.57 464.17 196.873 453.688 195.599C452.959 195.51 452.309 195.089 451.955 194.446C447.686 186.683 436.072 175.663 419.25 186.75C397.25 201.25 402.25 205.5 403.5 207.75C404.75 210 435.75 214.75 447 201.75C458.25 188.75 457.25 170.5 439.5 167.75C428.944 166.115 410.827 173.404 397.225 180.231C395.166 181.264 396.131 183.578 398.305 182.815C412.595 177.799 427.659 169.986 422.81 161.974C422.623 161.665 422.328 161.417 421.985 161.305C419.232 160.404 411.894 159.891 400.5 164C388.554 168.308 376.432 183.036 371.551 190.297C371.35 190.596 371.081 190.837 370.747 190.973C367.865 192.146 361.52 193.139 355.5 189C347.5 183.5 374.25 194.25 377.75 189C381.25 183.75 389.5 169.75 395.75 161.5C400.061 155.809 397.743 149.833 395.366 146.585C394.776 145.779 393.654 145.689 392.84 146.269C386.026 151.133 372.947 159.638 365.5 161.5C355.5 164 320 218 314.5 231.5C309 245 274.25 285.25 274.5 294.5C274.75 303.75 289.5 288 301.25 288.5C313 289 335 319.25 336 347.25C337 375.25 332 393.25 323.25 347.25C314.5 301.25 317.25 273.25 311.25 264C305.25 254.75 291.5 248.25 283 259.25C274.647 270.06 267.743 277.731 257.068 287.957C256.705 288.305 256.482 288.779 256.451 289.28L255.302 307.427C255.269 307.954 255.032 308.442 254.641 308.797C244.401 318.12 231.02 336.333 255.016 338.975C255.165 338.991 255.33 338.99 255.479 338.972C269.758 337.191 270.556 331.62 271.75 316.5C273.25 297.5 303.25 336.75 307.25 345.75C311.25 354.75 324 384.5 305.5 401.5C287 418.5 283.5 421 277 414.25C270.5 407.5 301.25 383.75 301.25 374.75C301.25 365.75 283.75 360.75 259.5 360.75C235.25 360.75 212 351.75 211.5 337.25C211 322.75 234 328.5 238.5 341C243 353.5 244.25 402.5 233.75 407.5C223.25 412.5 215.25 347.25 208.75 345.75C202.25 344.25 190 344.5 183.5 376.75C179.708 395.562 172.142 400.542 166.189 400.568C164.269 400.576 164.492 398.244 166.267 397.513C171.137 395.505 176.186 391.328 176.336 383.685C176.359 382.511 175.256 381.687 174.087 381.803C166.768 382.53 154.226 381.027 147.402 370.668C146.647 369.523 145.011 369.275 144.12 370.317C137.585 377.951 127.958 393.705 130.5 409.5C134 431.25 178 457 176.25 470C174.5 483 153.75 493.5 116.5 492.5C79.25 491.5 65.25 493.5 49.25 446.25C33.25 399 -7.25004 340.25 3.99996 281.75C15.25 223.25 39.5 219.5 50.25 219C61 218.5 75.75 238.5 89 254.75C102.25 271 124.5 240.75 132 240.75C139.5 240.75 152 245.75 153.75 240.75C155.5 235.75 160.25 240.75 163.5 240.75C166.75 240.75 191 228.25 194.5 230.75C198 233.25 209.75 249.5 216.75 247.5C223.75 245.5 271 198.75 277 197.25C282.902 195.775 369.594 186.075 393.129 117.71C393.64 116.225 392.279 114.759 390.739 115.073C377.638 117.751 351.694 119.211 329.5 107.75C299 92 280 58.75 269.75 35.75C259.5 12.75 242.75 -15.25 244 16.75C245.248 48.7084 260.71 86.4018 222.649 88.9901C222.554 88.9965 222.457 88.9968 222.361 88.9886C216.948 88.5232 204.276 85.0093 195.75 74.5C185 61.25 194.75 119.75 157.5 136.25C120.25 152.75 117.75 117.25 122.25 97.75C126.75 78.25 143.75 84.25 142.5 109.25C141.325 132.744 125.799 153.368 99.2412 166.765C97.5438 167.621 95.8053 165.795 96.6585 164.096C110.326 136.882 127.757 91.0624 104.5 91.25C73.5 91.5 62 117.5 62.25 122.5C62.5 127.5 90.75 142.5 84.5 149C78.25 155.5 76 162.5 79.5 181.5C83 200.5 83.5 224 43.75 264C11.95 296 27.8333 323.5 39.75 333.25" stroke="#22577A" stroke-width="3.87" stroke-linecap="round" stroke-linejoin="round"/>
</svg>
